<?xml version="1.0" encoding="utf-8"?>
<!-- Generator: Adobe Illustrator 19.0.0, SVG Export Plug-In . SVG Version: 6.00 Build 0)  -->
<svg version="1.1" id="Capa_1" xmlns="http://www.w3.org/2000/svg" xmlns:xlink="http://www.w3.org/1999/xlink" x="0px" y="0px"
	 viewBox="-285 376.9 40.1 40.1" style="enable-background:new -285 376.9 40.1 40.1;" xml:space="preserve">
<style type="text/css">
	.st0{fill:#FFFFFF;}
</style>
<g>
	<g>
		<path class="st0" d="M-259.4,410.5h-19.2c-3.6,0-6.4-2.9-6.4-6.4c0-3.5,2.8-6.4,6.3-6.4c1.2-4.3,5.2-7.3,9.7-7.3
			c3.7,0,7.1,2,8.9,5.3c0.3,0,0.5,0,0.8,0c4.1,0,7.4,3.3,7.4,7.4C-251.9,407.2-255.3,410.5-259.4,410.5z M-278.6,398.7
			c-3,0-5.4,2.4-5.4,5.4s2.4,5.4,5.4,5.4h19.2c3.6,0,6.4-2.9,6.4-6.4c0-3.6-2.9-6.4-6.4-6.4c-0.3,0-0.6,0-1,0.1
			c-0.2,0-0.4-0.1-0.5-0.3c-1.5-3.1-4.7-5.1-8.1-5.1c-4.2,0-7.8,2.8-8.8,6.9c-0.1,0.2-0.3,0.4-0.5,0.4L-278.6,398.7z"/>
		<path class="st0" d="M-259.4,410.5c-0.3,0-0.5-0.2-0.5-0.5s0.2-0.5,0.5-0.5c3.6,0,6.4-2.9,6.4-6.4c0-3.6-2.9-6.4-6.4-6.4
			c-1.9,0-3.6,0.8-4.9,2.2c-0.2,0.2-0.5,0.2-0.7,0c-0.2-0.2-0.2-0.5,0-0.7c1.4-1.6,3.5-2.5,5.6-2.5c4.1,0,7.4,3.3,7.4,7.4
			C-251.9,407.2-255.3,410.5-259.4,410.5z"/>
	</g>
	<g>
		<path class="st0" d="M-252.4,403.5c-0.3,0-0.5-0.2-0.5-0.5s0.2-0.5,0.5-0.5c3.6,0,6.4-2.9,6.4-6.4c0-3.6-2.9-6.4-6.4-6.4
			c-0.3,0-0.6,0-1,0.1c-0.2,0-0.4-0.1-0.5-0.3c-1.5-3.1-4.7-5.1-8.1-5.1c-4.2,0-7.8,2.8-8.8,6.9c-0.1,0.2-0.3,0.4-0.5,0.4l-0.1,0
			c-0.3,0-0.5-0.2-0.5-0.5c0-0.2,0.1-0.4,0.3-0.5c1.2-4.3,5.2-7.3,9.7-7.3c3.7,0,7.1,2,8.9,5.3c0.3,0,0.5,0,0.8,0
			c4.1,0,7.4,3.3,7.4,7.4C-244.9,400.2-248.3,403.5-252.4,403.5z"/>
		<path class="st0" d="M-252.4,403.5c-0.3,0-0.5-0.2-0.5-0.5s0.2-0.5,0.5-0.5c3.6,0,6.4-2.9,6.4-6.4c0-3.6-2.9-6.4-6.4-6.4
			c-1.9,0-3.6,0.8-4.9,2.2c-0.2,0.2-0.5,0.2-0.7,0c-0.2-0.2-0.2-0.5,0-0.7c1.4-1.6,3.5-2.5,5.6-2.5c4.1,0,7.4,3.3,7.4,7.4
			C-244.9,400.2-248.3,403.5-252.4,403.5z"/>
	</g>
</g>
</svg>
