<?xml version="1.0" encoding="utf-8"?>
<!-- Generator: Adobe Illustrator 19.0.0, SVG Export Plug-In . SVG Version: 6.00 Build 0)  -->
<svg version="1.1" id="Capa_1" xmlns="http://www.w3.org/2000/svg" xmlns:xlink="http://www.w3.org/1999/xlink" x="0px" y="0px"
	 viewBox="-288 380.9 33.1 33.1" style="enable-background:new -288 380.9 33.1 33.1;" xml:space="preserve">
<style type="text/css">
	.st0{fill:#FFFFFF;}
</style>
<g>
	<g>
		<path class="st0" d="M-262.4,403.3c-0.3,0-0.5-0.2-0.5-0.5s0.2-0.5,0.5-0.5c3.6,0,6.4-2.9,6.4-6.4c0-3.6-2.9-6.4-6.4-6.4
			c-0.3,0-0.6,0-1,0.1c-0.2,0-0.4-0.1-0.5-0.3c-1.5-3.1-4.7-5.1-8.1-5.1c-4.2,0-7.8,2.8-8.8,6.9c-0.1,0.2-0.3,0.4-0.5,0.4l-0.1,0
			c0,0,0,0,0,0c-3.1,0-5.5,2.4-5.5,5.4c0,3,2.4,5.4,5.4,5.4c0.3,0,0.5,0.2,0.5,0.5s-0.2,0.5-0.5,0.5c-3.6,0-6.4-2.9-6.4-6.4
			c0-3.5,2.8-6.4,6.3-6.4c1.2-4.3,5.2-7.3,9.7-7.3c3.7,0,7.1,2,8.9,5.3c0.3,0,0.5,0,0.8,0c4.1,0,7.4,3.3,7.4,7.4
			C-254.9,399.9-258.3,403.3-262.4,403.3z"/>
		<path class="st0" d="M-262.4,403.3c-0.3,0-0.5-0.2-0.5-0.5s0.2-0.5,0.5-0.5c3.6,0,6.4-2.9,6.4-6.4c0-3.6-2.9-6.4-6.4-6.4
			c-1.9,0-3.6,0.8-4.9,2.2c-0.2,0.2-0.5,0.2-0.7,0c-0.2-0.2-0.2-0.5,0-0.7c1.4-1.6,3.5-2.5,5.6-2.5c4.1,0,7.4,3.3,7.4,7.4
			C-254.9,399.9-258.3,403.3-262.4,403.3z"/>
	</g>
	<g>
		<path class="st0" d="M-279.7,411.8c-0.1,0-0.1,0-0.2,0c-0.3-0.1-0.4-0.4-0.3-0.6l0.9-2.9c0.1-0.3,0.4-0.4,0.6-0.3
			c0.3,0.1,0.4,0.4,0.3,0.6l-0.9,2.9C-279.3,411.7-279.5,411.8-279.7,411.8z M-277.9,406.1c-0.1,0-0.1,0-0.2,0
			c-0.3-0.1-0.4-0.4-0.3-0.6l0.9-2.9c0.1-0.3,0.4-0.4,0.6-0.3c0.3,0.1,0.4,0.4,0.3,0.6l-0.9,2.9C-277.5,406-277.7,406.1-277.9,406.1
			z"/>
	</g>
	<g>
		<path class="st0" d="M-269.7,411.8c-0.1,0-0.1,0-0.2,0c-0.3-0.1-0.4-0.4-0.3-0.6l0.9-2.9c0.1-0.3,0.4-0.4,0.6-0.3
			c0.3,0.1,0.4,0.4,0.3,0.6l-0.9,2.9C-269.3,411.7-269.5,411.8-269.7,411.8z M-267.9,406.1c-0.1,0-0.1,0-0.2,0
			c-0.3-0.1-0.4-0.4-0.3-0.6l0.9-2.9c0.1-0.3,0.4-0.4,0.6-0.3c0.3,0.1,0.4,0.4,0.3,0.6l-0.9,2.9C-267.5,406-267.7,406.1-267.9,406.1
			z"/>
	</g>
	<g>
		<path class="st0" d="M-274.7,411.8c-0.1,0-0.1,0-0.2,0c-0.3-0.1-0.4-0.4-0.3-0.6l0.9-2.9c0.1-0.3,0.4-0.4,0.6-0.3
			c0.3,0.1,0.4,0.4,0.3,0.6l-0.9,2.9C-274.3,411.7-274.5,411.8-274.7,411.8z M-272.9,406.1c-0.1,0-0.1,0-0.2,0
			c-0.3-0.1-0.4-0.4-0.3-0.6l0.9-2.9c0.1-0.3,0.4-0.4,0.6-0.3c0.3,0.1,0.4,0.4,0.3,0.6l-0.9,2.9C-272.5,406-272.7,406.1-272.9,406.1
			z"/>
	</g>
</g>
</svg>
