<?xml version="1.0" encoding="utf-8"?>
<!-- Generator: Adobe Illustrator 19.0.0, SVG Export Plug-In . SVG Version: 6.00 Build 0)  -->
<svg version="1.1" id="Capa_1" xmlns="http://www.w3.org/2000/svg" xmlns:xlink="http://www.w3.org/1999/xlink" x="0px" y="0px"
	 viewBox="-150 242.9 309.1 309.1" style="enable-background:new -150 242.9 309.1 309.1;" xml:space="preserve">
<style type="text/css">
	.st0{fill:#FFFFFF;}
</style>
<g>
	<path class="st0" d="M61,413c-1,0-1.9,0-2.9-0.1l-201.7,0.1c-3.6,0-6.4-2.9-6.4-6.4c0-3.5,2.9-6.4,6.4-6.4l202-0.1
		c1.1,0,1.8,0.1,2.6,0.1c30.3,0,54.9-24.6,54.9-54.9c0-30.3-24.6-54.9-54.9-54.9c-30.3,0-54.9,24.6-54.9,54.9
		c0,7.4,1.5,14.7,4.3,21.4c1.4,3.3-0.1,7-3.4,8.4c-3.3,1.4-7.1-0.1-8.4-3.4c-3.6-8.4-5.4-17.3-5.4-26.5c0-37.3,30.4-67.7,67.7-67.7
		s67.7,30.4,67.7,67.7C128.8,382.7,98.4,413,61,413z M159.1,470.7c0-25.7-20.9-46.6-46.6-46.6c-0.7,0-1.3,0-1.7,0l-254.4,0l0,0
		c-3.5,0-6.4,2.9-6.4,6.4c0,3.5,2.9,6.4,6.4,6.4l254.6,0l1.5,0c18.6,0,33.7,15.1,33.7,33.7s-15.1,33.7-33.7,33.7
		s-33.7-15.1-33.7-33.7c0-4.6,0.9-9,2.7-13.2c1.4-3.3-0.1-7-3.4-8.4c-3.3-1.4-7,0.1-8.4,3.4c-2.5,5.8-3.7,11.9-3.7,18.2
		c0,25.7,20.9,46.6,46.6,46.6C138.2,517.3,159.1,496.4,159.1,470.7z M-143.6,387.9l75.3,0l1.5,0c20.5,0,37.3-16.7,37.3-37.3
		c0-20.5-16.7-37.3-37.3-37.3c-20.6,0-37.3,16.7-37.3,37.3c0,5.1,1,10,3,14.6c1.4,3.3,5.2,4.8,8.4,3.4c3.3-1.4,4.8-5.2,3.4-8.4
		c-1.3-3-1.9-6.2-1.9-9.5c0-13.5,11-24.4,24.4-24.4c13.5,0,24.4,11,24.4,24.4c0,13.5-11,24.4-24.4,24.4l-1.3,0l-75.5,0
		c-3.5,0-6.4,2.9-6.4,6.4C-150,385.1-147.1,387.9-143.6,387.9L-143.6,387.9z M-46.1,456.5c0-3.6-2.9-6.4-6.4-6.4h-91
		c-3.5,0-6.4,2.9-6.4,6.4c0,3.6,2.9,6.4,6.4,6.4h91C-49,462.9-46.1,460.1-46.1,456.5z"/>
</g>
</svg>
