<?xml version="1.0" encoding="utf-8"?>
<!-- Generator: Adobe Illustrator 19.0.0, SVG Export Plug-In . SVG Version: 6.00 Build 0)  -->
<svg version="1.1" id="Layer_1" xmlns="http://www.w3.org/2000/svg" xmlns:xlink="http://www.w3.org/1999/xlink" x="0px" y="0px"
	 viewBox="-49 141 512 512" style="enable-background:new -49 141 512 512;" xml:space="preserve">
<style type="text/css">
	.st0{fill:#FFFFFF;}
</style>
<g>
	<g>
		<path class="st0" d="M207,252.3c-79.8,0-144.7,64.9-144.7,144.7S127.2,541.7,207,541.7S351.7,476.8,351.7,397
			S286.8,252.3,207,252.3z M207,519.4c-67.5,0-122.4-54.9-122.4-122.4S139.5,274.6,207,274.6S329.4,329.5,329.4,397
			S274.5,519.4,207,519.4z"/>
	</g>
</g>
<g>
	<g>
		<path class="st0" d="M207,296.8c-30.3,0-58.7,13.5-77.8,37.1c-3.9,4.8-3.1,11.8,1.6,15.7c2.1,1.7,4.5,2.5,7,2.5
			c3.2,0,6.5-1.4,8.7-4.1c14.9-18.4,37-28.9,60.5-28.9c6.1,0,11.1-5,11.1-11.1S213.1,296.8,207,296.8z"/>
	</g>
</g>
<g>
	<g>
		<path class="st0" d="M123.5,363.9c-5.9-1.5-12,2.1-13.5,8c0,0,0,0.1,0,0.1c-1.5,5.9,2.1,12,8.1,13.5c0.9,0.2,1.8,0.3,2.7,0.3
			c5,0,9.5-3.4,10.8-8.4c0,0,0-0.1,0-0.1C133.1,371.4,129.5,365.4,123.5,363.9z"/>
	</g>
</g>
<g>
	<g>
		<path class="st0" d="M207,141c-6.1,0-11.1,5-11.1,11.1v66.8c0,6.1,5,11.1,11.1,11.1s11.1-5,11.1-11.1v-66.8
			C218.1,146,213.1,141,207,141z"/>
	</g>
</g>
<g>
	<g>
		<path class="st0" d="M207,564c-6.1,0-11.1,5-11.1,11.1v66.8c0,6.1,5,11.1,11.1,11.1s11.1-5,11.1-11.1v-66.8
			C218.1,568.9,213.1,564,207,564z"/>
	</g>
</g>
<g>
	<g>
		<path class="st0" d="M88.9,263.2L41.7,216c-4.3-4.3-11.4-4.3-15.7,0c-4.3,4.3-4.3,11.4,0,15.7l47.2,47.2c2.2,2.2,5,3.3,7.9,3.3
			s5.7-1.1,7.9-3.3C93.3,274.6,93.3,267.5,88.9,263.2z"/>
	</g>
</g>
<g>
	<g>
		<path class="st0" d="M388,562.3l-47.2-47.2c-4.3-4.3-11.4-4.3-15.7,0c-4.3,4.3-4.3,11.4,0,15.7l47.2,47.2c2.2,2.2,5,3.3,7.9,3.3
			s5.7-1.1,7.9-3.3C392.4,573.7,392.4,566.6,388,562.3z"/>
	</g>
</g>
<g>
	<g>
		<path class="st0" d="M28.9,385.9h-66.8c-6.1,0-11.1,5-11.1,11.1s5,11.1,11.1,11.1h66.8c6.1,0,11.1-5,11.1-11.1
			S35.1,385.9,28.9,385.9z"/>
	</g>
</g>
<g>
	<g>
		<path class="st0" d="M451.9,385.9h-66.8c-6.1,0-11.1,5-11.1,11.1s5,11.1,11.1,11.1h66.8c6.1,0,11.1-5,11.1-11.1
			S458,385.9,451.9,385.9z"/>
	</g>
</g>
<g>
	<g>
		<path class="st0" d="M88.9,515.1c-4.3-4.3-11.4-4.3-15.7,0L26,562.3c-4.3,4.3-4.3,11.4,0,15.7c2.2,2.2,5,3.3,7.9,3.3
			s5.7-1.1,7.9-3.3l47.2-47.2C93.3,526.5,93.3,519.4,88.9,515.1z"/>
	</g>
</g>
<g>
	<g>
		<path class="st0" d="M388,216c-4.3-4.3-11.4-4.3-15.7,0l-47.2,47.2c-4.3,4.3-4.3,11.4,0,15.7c2.2,2.2,5,3.3,7.9,3.3
			s5.7-1.1,7.9-3.3l47.2-47.2C392.4,227.4,392.4,220.3,388,216z"/>
	</g>
</g>
</svg>
