<?xml version="1.0" encoding="utf-8"?>
<!-- Generator: Adobe Illustrator 19.0.0, SVG Export Plug-In . SVG Version: 6.00 Build 0)  -->
<svg version="1.1" id="Capa_1" xmlns="http://www.w3.org/2000/svg" xmlns:xlink="http://www.w3.org/1999/xlink" x="0px" y="0px"
	 viewBox="-49 141 512 512" style="enable-background:new -49 141 512 512;" xml:space="preserve">
<style type="text/css">
	.st0{fill:#FFFFFF;}
</style>
<g>
	<g>
		<g>
			<path class="st0" d="M404.2,345.7H398c-3.6-22.5-14.7-43.1-31.6-58.7c-18.8-17.2-43.2-26.7-68.7-26.7c-10.3,0-20.5,1.5-30.2,4.6
				c-8.9-14.8-20.4-27.5-33.7-37.5h138.1c16.5,0,29.9-13.4,29.9-29.9s-13.4-29.9-29.9-29.9c-16.5,0-29.9,13.4-29.9,29.9h15
				c0-8.2,6.7-14.9,14.9-14.9s14.9,6.7,14.9,14.9s-6.7,14.9-14.9,14.9H208.4v0.1c-16.5-7.4-34.7-11.4-53.5-11.4
				c-69.5,0-126.6,54.4-130.9,122.8c-1.1-0.1-2.2-0.1-3.3-0.1c-38.5,0-69.8,31.3-69.8,69.8s31.3,69.8,69.8,69.8h383.4
				c32.4,0,58.8-26.4,58.8-58.8S436.6,345.7,404.2,345.7z M404.2,448.4H20.8c-26.3,0-48.3-18.6-53.6-43.3h158.3
				c16.5,0,29.9-13.4,29.9-29.9s-13.4-29.9-29.9-29.9s-29.9,13.4-29.9,29.9h15c0-8.2,6.7-14.9,14.9-14.9s14.9,6.7,14.9,14.9
				c0,8.2-6.7,14.9-14.9,14.9H-33.9c1.8-28.6,25.6-51.2,54.7-51.2c3,0,6.2,0.3,9.3,0.8l8.8,1.5l0-8.9c0-64,52.1-116.2,116.2-116.2
				c42.9,0,82.2,23.6,102.5,61.5l3.1,5.8l6.2-2.4c9.9-3.8,20.3-5.7,31-5.7c42.3,0,77.5,29.8,85.1,70.4H331v15h53.5h6.9h12.8
				c24.2,0,43.8,19.7,43.8,43.8S428.3,448.4,404.2,448.4z"/>
			<path class="st0" d="M377.7,482.3c-16.5,0-29.9,13.4-29.9,29.9h15c0-8.2,6.7-14.9,14.9-14.9c8.2,0,14.9,6.7,14.9,14.9
				c0,8.2-6.7,14.9-14.9,14.9H214.2v15h163.5c16.5,0,29.9-13.4,29.9-29.9C407.6,495.7,394.2,482.3,377.7,482.3z"/>
			<path class="st0" d="M168.8,566.6c-16.5,0-29.9,13.4-29.9,29.9h15c0-8.2,6.7-14.9,14.9-14.9s14.9,6.7,14.9,14.9
				c0,8.2-6.7,14.9-14.9,14.9H5.3v15h163.5c16.5,0,29.9-13.4,29.9-29.9C198.7,580,185.3,566.6,168.8,566.6z"/>
			<rect x="293.4" y="345.7" class="st0" width="17.2" height="15"/>
		</g>
	</g>
</g>
</svg>
